<svg xmlns="http://www.w3.org/2000/svg" width="290" height="290" viewBox="0 0 290 290">
  <g id="Helper" transform="translate(18766 2517)">
    <rect id="Rectangle_1862" data-name="Rectangle 1862" width="290" height="290" transform="translate(-18766 -2517)" fill="#fff"/>
    <g id="help_1_" data-name="help (1)" transform="translate(-18706 -2457.005)">
      <path id="Path_18778" data-name="Path 18778" d="M85,0a85,85,0,1,0,85,85A85,85,0,0,0,85,0Zm0,125.2A40.2,40.2,0,1,1,125.2,85,40.2,40.2,0,0,1,85,125.208Z" transform="translate(0 0)" fill="#e8e8e8"/>
      <path id="Path_18779" data-name="Path 18779" d="M12.87,85.005A85.008,85.008,0,0,1,91.436.244Q88.251,0,85,0a85,85,0,0,0,0,170q3.247,0,6.432-.239A85.008,85.008,0,0,1,12.87,85.005Zm85-40.2a39.714,39.714,0,0,0-6.432.517,40.2,40.2,0,0,1,0,79.372,39.751,39.751,0,0,0,6.432.517,40.2,40.2,0,0,0,0-80.406Z" transform="translate(-0.004 0)" fill="#c1c0bf"/>
      <path id="Path_18780" data-name="Path 18780" d="M170,85.006a69.108,69.108,0,0,0-44.792,0,40.205,40.205,0,0,1-33.767,39.686h0a39.751,39.751,0,0,1-6.432.517h0a69.129,69.129,0,0,0-.34,43.777c.111.34.225.677.34,1.016v0h0c.378,0,.76,0,1.138-.007.305,0,.614-.01.919-.017.413-.01.822-.021,1.228-.038.35-.014.7-.028,1.048-.045.031,0,.066,0,.1-.007.343-.017.687-.035,1.027-.059s.652-.042.975-.066a85.007,85.007,0,0,0,78.566-84.76Zm-85-85v0a85,85,0,0,0-85,85h0a69.077,69.077,0,0,1,44.792,0A40.2,40.2,0,0,1,85,44.8a69.129,69.129,0,0,1-.34-43.777C84.776.686,84.89.349,85.005.009Z" transform="translate(-0.007 -0.001)" fill="#ff605d"/>
      <path id="Path_18781" data-name="Path 18781" d="M85.005.009v0a85,85,0,0,0-85,85h0a69.145,69.145,0,0,1,12.913-3.077,85.032,85.032,0,0,1,71.739-80.9C84.776.686,84.89.349,85.005.009Zm52.956,81.943a68.894,68.894,0,0,0-12.75,3.053,40.205,40.205,0,0,1-33.767,39.686,39.707,39.707,0,0,0,6.429.517,40.2,40.2,0,0,0,40.2-40.2Q138.075,83.465,137.961,81.953Z" transform="translate(-0.007 -0.001)" fill="#e04848"/>
    </g>
  </g>
</svg>
