<svg xmlns="http://www.w3.org/2000/svg" width="290" height="290" viewBox="0 0 290 290">
  <g id="Contact_From_7" data-name="Contact From 7" transform="translate(17742 2080)">
    <rect id="Rectangle_1868" data-name="Rectangle 1868" width="290" height="290" transform="translate(-17742 -2080)" fill="#fff"/>
    <g id="email" transform="translate(-17741.813 -2080.076)">
      <g id="Group_6044" data-name="Group 6044" transform="translate(59.812 82.076)">
        <g id="Group_6043" data-name="Group 6043">
          <g id="Group_6035" data-name="Group 6035" transform="translate(0 18.853)">
            <path id="Path_18737" data-name="Path 18737" d="M211.607,234.887H67.965a8.153,8.153,0,0,1-8.153-8.153V136.479a8.153,8.153,0,0,1,8.153-8.153H211.607a8.153,8.153,0,0,1,8.153,8.153v90.255A8.152,8.152,0,0,1,211.607,234.887Z" transform="translate(-59.812 -128.326)" fill="#9fb0fe"/>
            <g id="Group_6034" data-name="Group 6034" transform="translate(0 38.039)">
              <path id="Path_18740" data-name="Path 18740" d="M142.269,222.485,219.76,282.01a8.153,8.153,0,0,1-8.153,8.153H67.965a8.153,8.153,0,0,1-8.153-8.153L137.3,222.485a4.076,4.076,0,0,1,4.967,0Z" transform="translate(-59.812 -221.641)" fill="#8399fe"/>
            </g>
            <path id="Path_18742" data-name="Path 18742" d="M137.3,196,59.812,136.479a8.153,8.153,0,0,1,8.153-8.153H211.607a8.153,8.153,0,0,1,8.153,8.153L142.269,196A4.077,4.077,0,0,1,137.3,196Z" transform="translate(-59.812 -128.326)" fill="#b7c5ff"/>
          </g>
          <g id="Group_6042" data-name="Group 6042" transform="translate(111.694)">
            <circle id="Ellipse_2885" data-name="Ellipse 2885" cx="29.153" cy="29.153" r="29.153" fill="#ff5ba8"/>
          </g>
          <path id="Path_18747" data-name="Path 18747" d="M373.876,125.09l4.16,9.942-4.16,9.942a2.038,2.038,0,0,0,2.681,2.661l25.118-10.729a2.038,2.038,0,0,0,0-3.749l-25.118-10.729A2.038,2.038,0,0,0,373.876,125.09Z" transform="translate(-245.754 -105.879)" fill="#fff"/>
          <path id="Path_18748" data-name="Path 18748" d="M389.4,144.951,376.871,150.3l3.034-7.256-3.037-7.256,12.528,5.352A2.132,2.132,0,0,1,389.4,144.951Z" transform="translate(-247.623 -113.895)" fill="#ffdbed"/>
        </g>
      </g>
    </g>
  </g>
</svg>
