<svg xmlns="http://www.w3.org/2000/svg" width="290" height="290" viewBox="0 0 290 290">
  <g id="cookie" transform="translate(18748 1172)">
    <g id="Whatsapp_Support" data-name="Whatsapp Support" transform="translate(32 892)">
      <rect id="Rectangle_1866" data-name="Rectangle 1866" width="290" height="290" transform="translate(-18780 -2064)" fill="#fff"/>
    </g>
    <g id="cookie-2" data-name="cookie" transform="translate(-18688 -1112.002)">
      <path id="Path_21629" data-name="Path 21629" d="M168.328,100.381a26.069,26.069,0,0,1-3.79.278,26.612,26.612,0,0,1-25.33-18.467,5.249,5.249,0,0,0-3.973-3.6,42.556,42.556,0,0,1-27.435-65.4,2.669,2.669,0,0,0-1.716-4.119,82.514,82.514,0,1,0,65.344,94.277A2.657,2.657,0,0,0,168.328,100.381Z" transform="translate(-5.012 -5.01)" fill="#f9c795"/>
      <g id="Group_12424" data-name="Group 12424" transform="translate(37.094 47.741)">
        <circle id="Ellipse_2963" data-name="Ellipse 2963" cx="10.645" cy="10.645" r="10.645" fill="#cd916e"/>
        <circle id="Ellipse_2964" data-name="Ellipse 2964" cx="7.985" cy="7.985" r="7.985" transform="translate(7.982 55.891)" fill="#cd916e"/>
      </g>
      <g id="Group_12425" data-name="Group 12425" transform="translate(118.402 14.861)">
        <path id="Path_21630" data-name="Path 21630" d="M357.471,53.959l-.764,4.582a7.985,7.985,0,0,0,5.072,8.789l6.761,2.535a7.985,7.985,0,0,0,10.55-5.54l2.41-9.639A7.985,7.985,0,0,0,371.459,45.1l-8.407,2.522A7.986,7.986,0,0,0,357.471,53.959Z" transform="translate(-356.598 -44.754)" fill="#f5b97d"/>
        <path id="Path_21631" data-name="Path 21631" d="M427.983,158.677l-3.214,1.607a5.323,5.323,0,0,0-2.512,6.858l2.586,6.034a5.323,5.323,0,0,0,8.982,1.311l4.16-4.992a5.323,5.323,0,0,0-.9-7.666l-3.532-2.649A5.323,5.323,0,0,0,427.983,158.677Z" transform="translate(-400.167 -120.475)" fill="#f5b97d"/>
        <circle id="Ellipse_2965" data-name="Ellipse 2965" cx="5.323" cy="5.323" r="5.323" transform="translate(38.462 16.909)" fill="#f5b97d"/>
      </g>
      <g id="Group_12426" data-name="Group 12426" transform="translate(2.491 17.356)">
        <path id="Path_21632" data-name="Path 21632" d="M99.995,201.568A82.494,82.494,0,0,1,36.885,65.929,82.5,82.5,0,1,0,153.1,182.212,82.123,82.123,0,0,1,99.995,201.568Z" transform="translate(-7.504 -61.393)" fill="#dfc49c"/>
        <path id="Path_21633" data-name="Path 21633" d="M369.724,68.707a9.973,9.973,0,0,1-6.336-10.978l.91-5.46-1.246.374a7.985,7.985,0,0,0-5.582,6.336l-.764,4.582a7.985,7.985,0,0,0,5.072,8.789l6.761,2.535a7.955,7.955,0,0,0,9.425-3.087Z" transform="translate(-240.687 -52.269)" fill="#e3aa75"/>
        <path id="Path_21634" data-name="Path 21634" d="M430.521,171.534l-2.929-6.834a5.979,5.979,0,0,1-.263-3.909l-2.562,1.281a5.323,5.323,0,0,0-2.512,6.858l2.586,6.034a5.323,5.323,0,0,0,8.982,1.311l1.034-1.241A5.936,5.936,0,0,1,430.521,171.534Z" transform="translate(-284.256 -124.757)" fill="#e3aa75"/>
      </g>
      <g id="Group_12427" data-name="Group 12427" transform="translate(37.092 48.58)">
        <path id="Path_21635" data-name="Path 21635" d="M128.015,161.1a10.651,10.651,0,0,1-9.806-14.8,10.648,10.648,0,1,0,13.957,13.957A10.613,10.613,0,0,1,128.015,161.1Z" transform="translate(-111.713 -146.306)" fill="#b67f5f"/>
        <path id="Path_21636" data-name="Path 21636" d="M147.9,325.251a7.976,7.976,0,0,1-7.325-11.151,7.982,7.982,0,1,0,10.492,10.492A7.948,7.948,0,0,1,147.9,325.251Z" transform="translate(-127.776 -258.387)" fill="#b67f5f"/>
      </g>
      <circle id="Ellipse_2966" data-name="Ellipse 2966" cx="10.645" cy="10.645" r="10.645" transform="translate(92.988 108.958)" fill="#cd916e"/>
      <path id="Path_21637" data-name="Path 21637" d="M296.352,345.472a10.651,10.651,0,0,1-9.806-14.8A10.648,10.648,0,1,0,300.5,344.632,10.611,10.611,0,0,1,296.352,345.472Z" transform="translate(-187.064 -220.878)" fill="#b67f5f"/>
      <circle id="Ellipse_2967" data-name="Ellipse 2967" cx="5.323" cy="5.323" r="5.323" transform="translate(76.905 66.372)" fill="#cd916e"/>
      <path id="Path_21638" data-name="Path 21638" d="M117.35,136.275a13.137,13.137,0,1,0,13.137,13.137A13.152,13.152,0,0,0,117.35,136.275Zm0,21.293a8.156,8.156,0,1,1,8.156-8.156A8.165,8.165,0,0,1,117.35,157.568Z" transform="translate(-69.611 -91.026)" fill="#314e55"/>
      <path id="Path_21639" data-name="Path 21639" d="M272.549,333.783a13.137,13.137,0,1,0,13.137-13.137A13.152,13.152,0,0,0,272.549,333.783Zm13.137-8.156a8.156,8.156,0,1,1-8.156,8.156A8.165,8.165,0,0,1,285.686,325.626Z" transform="translate(-182.054 -214.179)" fill="#314e55"/>
      <path id="Path_21640" data-name="Path 21640" d="M138.735,304.613a10.475,10.475,0,1,0,10.475,10.475A10.487,10.487,0,0,0,138.735,304.613Zm0,15.97a5.495,5.495,0,1,1,5.495-5.495A5.5,5.5,0,0,1,138.735,320.583Z" transform="translate(-85.674 -203.47)" fill="#314e55"/>
      <path id="Path_21641" data-name="Path 21641" d="M224.454,200.2a7.813,7.813,0,1,0,7.813-7.813A7.822,7.822,0,0,0,224.454,200.2Zm7.813-2.833a2.833,2.833,0,1,1-2.833,2.833A2.836,2.836,0,0,1,232.267,197.368Z" transform="translate(-149.928 -128.507)" fill="#314e55"/>
      <path id="Path_21642" data-name="Path 21642" d="M389.928,314.915a2.491,2.491,0,0,0,2.225-3.6l-2.662-5.323a2.49,2.49,0,1,0-4.455,2.227l2.662,5.323A2.49,2.49,0,0,0,389.928,314.915Z" transform="translate(-257.016 -203.468)" fill="#314e55"/>
      <path id="Path_21643" data-name="Path 21643" d="M307.105,272.174a2.481,2.481,0,0,0,1.112-.263l5.323-2.662a2.49,2.49,0,0,0-2.227-4.455l-5.323,2.662a2.49,2.49,0,0,0,1.116,4.718Z" transform="translate(-203.471 -176.696)" fill="#314e55"/>
      <path id="Path_21644" data-name="Path 21644" d="M83.087,249.41a2.49,2.49,0,1,0,4.455-2.227l-2.662-5.323a2.49,2.49,0,0,0-4.455,2.227Z" transform="translate(-53.546 -160.632)" fill="#314e55"/>
      <path id="Path_21645" data-name="Path 21645" d="M199.089,393.051l-5.323,2.662a2.49,2.49,0,1,0,2.227,4.455l5.323-2.662a2.49,2.49,0,0,0-2.227-4.455Z" transform="translate(-128.509 -262.367)" fill="#314e55"/>
      <path id="Path_21646" data-name="Path 21646" d="M207.319,83.554l-2.662-2.662a2.49,2.49,0,0,0-3.522,3.522l2.662,2.662a2.49,2.49,0,1,0,3.521-3.522Z" transform="translate(-133.865 -53.544)" fill="#314e55"/>
      <path id="Path_21647" data-name="Path 21647" d="M185.1,265.262a2.49,2.49,0,0,0,0,3.522l2.662,2.662a2.49,2.49,0,0,0,3.522-3.522l-2.662-2.662A2.49,2.49,0,0,0,185.1,265.262Z" transform="translate(-123.155 -176.697)" fill="#314e55"/>
      <path id="Path_21648" data-name="Path 21648" d="M280.566,435.36v2.662a2.49,2.49,0,0,0,4.98,0V435.36a2.49,2.49,0,1,0-4.98,0Z" transform="translate(-187.409 -289.141)" fill="#314e55"/>
      <path id="Path_21649" data-name="Path 21649" d="M236.721,135.173l2.662-2.662a2.49,2.49,0,1,0-3.522-3.522l-2.662,2.662a2.49,2.49,0,1,0,3.522,3.522Z" transform="translate(-155.283 -85.672)" fill="#314e55"/>
      <path id="Path_21650" data-name="Path 21650" d="M355.9,64.646l6.761,2.535a10.475,10.475,0,0,0,13.84-7.268l2.41-9.639A10.475,10.475,0,0,0,365.735,37.7l-8.406,2.522a10.543,10.543,0,0,0-7.323,8.311l-.764,4.582A10.5,10.5,0,0,0,355.9,64.646Zm-1.742-10.711.764-4.582a5.53,5.53,0,0,1,3.841-4.36l8.406-2.522a5.582,5.582,0,0,1,1.6-.238,5.5,5.5,0,0,1,5.3,6.833l-2.41,9.639a5.495,5.495,0,0,1-7.26,3.812l-6.761-2.535A5.506,5.506,0,0,1,354.155,53.935Z" transform="translate(-233.187 -24.879)" fill="#314e55"/>
      <path id="Path_21651" data-name="Path 21651" d="M418.647,153.033A7.822,7.822,0,0,0,414.96,163.1l2.586,6.034a7.761,7.761,0,0,0,6.053,4.654,7.976,7.976,0,0,0,1.15.084,7.753,7.753,0,0,0,5.981-2.813l4.16-4.992a7.813,7.813,0,0,0-1.315-11.253l-3.532-2.649a7.77,7.77,0,0,0-8.183-.738Zm5.442,2.848a2.817,2.817,0,0,1,2.966.267l3.532,2.649a2.833,2.833,0,0,1,.476,4.08l-4.16,4.992a2.833,2.833,0,0,1-4.78-.7l-2.586-6.034a2.836,2.836,0,0,1,1.337-3.65l3.215-1.607Z" transform="translate(-276.757 -100.59)" fill="#314e55"/>
      <path id="Path_21652" data-name="Path 21652" d="M472.749,103.807a7.813,7.813,0,1,0-7.813-7.813A7.822,7.822,0,0,0,472.749,103.807Zm0-10.646a2.833,2.833,0,1,1-2.833,2.833A2.836,2.836,0,0,1,472.749,93.161Z" transform="translate(-310.562 -58.9)" fill="#314e55"/>
      <path id="Path_21653" data-name="Path 21653" d="M219.494,92.907a23.708,23.708,0,0,1-3.428.251A24.041,24.041,0,0,1,193.108,76.42a7.738,7.738,0,0,0-5.878-5.285A40.066,40.066,0,0,1,161.4,9.566a5.159,5.159,0,0,0-3.3-7.944A85.64,85.64,0,0,0,132.261.5,84.042,84.042,0,0,0,85.489,21.2a2.49,2.49,0,0,0,3.293,3.736A79.083,79.083,0,0,1,132.794,5.454a80.67,80.67,0,0,1,24.335,1.055.19.19,0,0,1,.155.114.175.175,0,0,1-.027.179A45.046,45.046,0,0,0,186.3,76.028a2.763,2.763,0,0,1,2.068,1.916,29.007,29.007,0,0,0,27.7,20.2,28.685,28.685,0,0,0,4.151-.3.254.254,0,0,1,.281.109A79.726,79.726,0,0,1,201.638,137.8a2.49,2.49,0,0,0,3.742,3.288,84.7,84.7,0,0,0,20.036-42.342,4.972,4.972,0,0,0-1.382-4.328A5.3,5.3,0,0,0,219.494,92.907Z" transform="translate(-56.541)" fill="#314e55"/>
      <path id="Path_21654" data-name="Path 21654" d="M137.8,201.649A79.96,79.96,0,0,1,24.942,88.792,2.49,2.49,0,1,0,21.2,85.5,84.946,84.946,0,0,0,141.087,205.388a2.49,2.49,0,1,0-3.29-3.739Z" transform="translate(0 -56.547)" fill="#314e55"/>
    </g>
  </g>
</svg>
