<svg xmlns="http://www.w3.org/2000/svg" width="290" height="290" viewBox="0 0 290 290">
  <g id="Google_Map" data-name="Google Map" transform="translate(17242 2517)">
    <rect id="Rectangle_1865" data-name="Rectangle 1865" width="290" height="290" transform="translate(-17242 -2517)" fill="#fff"/>
    <g id="google-maps" transform="translate(-17182.277 -2457)">
      <ellipse id="Ellipse_2886" data-name="Ellipse 2886" cx="84.908" cy="84.816" rx="84.908" ry="84.816" transform="translate(0.277 0.184)" fill="#40a459"/>
      <path id="Path_18758" data-name="Path 18758" d="M233.477.555c-.646,0-1.289.01-1.932.024l-.49.012q-.919.025-1.833.069c-.158.008-.314.019-.471.027q-.7.038-1.387.088c-.232.017-.464.033-.7.051q-.8.064-1.6.142c-.276.027-.55.057-.824.087q-.494.054-.987.113c-.285.034-.57.067-.853.1a84.811,84.811,0,0,1,0,168.2c.284.037.568.07.853.1q.492.059.987.113c.275.03.549.06.824.087q.8.079,1.6.142c.231.019.464.035.7.051q.692.049,1.387.088c.157.009.314.019.471.027q.914.045,1.833.069l.49.012c.642.014,1.286.024,1.932.024a84.815,84.815,0,1,0,0-169.63Z" transform="translate(-148.293 -0.371)" fill="#378b4e"/>
      <path id="Path_18759" data-name="Path 18759" d="M222.4,166.39l35.421-20.3s38.746,8.244,47.689-8.056l2.82-5.141,2.453,5.326A84.938,84.938,0,0,1,281.27,244.058l-2.41,1.64Z" transform="translate(-148.293 -88.766)" fill="#898790"/>
      <path id="Path_18760" data-name="Path 18760" d="M415.673,174.576A84.361,84.361,0,0,0,405.4,134.1l-2.6,4.738a129.3,129.3,0,0,1-11.4,16.848,84.847,84.847,0,0,1-23.276,79.377l7.928,11.51A85.109,85.109,0,0,0,415.673,174.576Z" transform="translate(-245.581 -89.576)" fill="#7a797f"/>
      <path id="Path_18761" data-name="Path 18761" d="M108.841,348.418a84.875,84.875,0,0,1-71.625-39.152l-1.5-2.338L83,267.106l54.426,76.408-3.468,1.124A84.931,84.931,0,0,1,108.841,348.418Z" transform="translate(-23.656 -178.418)" fill="#3d9ae3"/>
      <path id="Path_18762" data-name="Path 18762" d="M262.336,480.265l-5.756-8.233A84.84,84.84,0,0,1,222.3,484.583a86.516,86.516,0,0,0,11.11.535A85.329,85.329,0,0,0,262.336,480.265Z" transform="translate(-148.223 -315.303)" fill="#1d81ce"/>
      <path id="Path_18763" data-name="Path 18763" d="M177.978,244.85l14.766-11.063L249.518,312.9l-2.76,1.618a85.092,85.092,0,0,1-12.2,5.9l-2.16.839Z" transform="translate(-118.635 -156.162)" fill="#fff"/>
      <path id="Path_18764" data-name="Path 18764" d="M330.09,457.484a84.617,84.617,0,0,0,17.115-8.355l-8.182-11.4A85.279,85.279,0,0,1,324.3,449.356Z" transform="translate(-216.321 -292.388)" fill="#e0e0e3"/>
      <path id="Path_18765" data-name="Path 18765" d="M18.146,207.878a84.8,84.8,0,0,1-5.882-13.219l-.7-2.676,99.615-69.259,14.766,11.063-106.354,76.7Z" transform="translate(-7.534 -81.976)" fill="#ffce00"/>
      <path id="Path_18766" data-name="Path 18766" d="M319.761,83.08c-5.223-5.449-31.276-33.453-31.276-49.706a33.409,33.409,0,0,1,66.819,0c0,16.242-26.053,44.255-31.276,49.706h0a2.955,2.955,0,0,1-4.266,0Z" transform="translate(-192.41)" fill="#cd2900"/>
      <path id="Path_18767" data-name="Path 18767" d="M358.968,74.3a14.935,14.935,0,1,1,14.951-14.935A14.96,14.96,0,0,1,358.968,74.3Z" transform="translate(-229.484 -29.675)" fill="#891d00"/>
      <path id="Path_18768" data-name="Path 18768" d="M109.439,116.11a17.546,17.546,0,0,0,17.535-17.516,2.767,2.767,0,0,0-2.769-2.766H113.13a2.766,2.766,0,1,0,0,5.532h7.983A11.991,11.991,0,1,1,117.371,89.6a2.767,2.767,0,1,0,3.663-4.148,17.525,17.525,0,1,0-11.6,30.655Z" transform="translate(-61.17 -54.158)" fill="#fff"/>
    </g>
  </g>
</svg>
