<svg xmlns="http://www.w3.org/2000/svg" width="290" height="290" viewBox="0 0 290 290">
  <g id="Kirki" transform="translate(18780 2064)">
    <rect id="Rectangle_1866" data-name="Rectangle 1866" width="290" height="290" transform="translate(-18780 -2064)" fill="#fff"/>
    <g id="Group_6048" data-name="Group 6048" transform="translate(-19067.746 -2354.116)">
      <path id="Path_18729" data-name="Path 18729" d="M455.917,489.369a59.726,59.726,0,0,1-45.531.053c-.14.195-.275.3-.286.411-.472,4.937-.826,5.263-5.776,5.261-1.72,0-3.446.069-5.161-.035-2.217-.135-3.162-1.118-3.422-3.35-.412-3.547-.734-7.106-1.258-10.636a5.058,5.058,0,0,0-1.364-2.785c-11.961-11.162-18.51-24.836-19.3-41.209a57.35,57.35,0,0,1,11-36.938,4.083,4.083,0,0,0,.634-2.466c-.2-3.013-.642-6.01-.857-9.023-.176-2.474.9-3.653,3.32-3.692,4.129-.066,8.425.676,12.341-.242,3.818-.9,7.146-3.693,10.867-5.225a57.327,57.327,0,0,1,37.339-2.3,63.141,63.141,0,0,1,16,6.924,6.181,6.181,0,0,0,2.871.784c3.508.092,7.02.017,10.53.043,2.595.02,3.69,1.271,3.469,3.913a27.149,27.149,0,0,1-.5,4.7c-.953,3.579.36,6.33,2.29,9.3,8.509,13.087,11.145,27.432,8.285,42.75-2.452,13.133-8.9,24.049-18.679,33.082a4.971,4.971,0,0,0-1.339,2.767c-.477,3.259-.71,6.553-1.111,9.825-.364,2.971-1.329,3.786-4.3,3.806-1.858.012-3.717.007-5.575,0-3.351-.012-4.291-.931-4.383-4.264C456,490.423,455.958,490.018,455.917,489.369Z" transform="translate(0 0)" fill="#9b5c8f"/>
      <path id="Path_18730" data-name="Path 18730" d="M469.5,509.815c9.879.1,18.851,2.719,26.064,9.814,9.7,9.543,9.229,23.917-1.188,32.666s-22.5,10.517-35.422,7.329a30.694,30.694,0,0,1-17.44-10.976c-6.539-8.412-6.236-19.288.753-27.422C448.519,513.949,458.328,509.848,469.5,509.815Zm.781,6.144c-7.718.118-14.286,1.825-20.05,6.179-8.875,6.7-9.636,18.2-1.608,25.227,11.283,9.873,30.051,10.061,41.6.417,7.63-6.372,8.137-16.762,1.024-23.718C485.269,518.22,477.8,516.112,470.279,515.959Z" transform="translate(-37.012 -79.057)" fill="#fff"/>
      <path id="Path_18731" data-name="Path 18731" d="M520.935,555.152a13.652,13.652,0,0,1,2.776-7.79,6.371,6.371,0,0,1,9.862-.72c4.556,4.543,4.686,14.653.25,19.368-3.068,3.26-7.739,2.825-10.458-.974C521.834,562.9,520.9,559.532,520.935,555.152Zm8.082-4.182c-2.568,2.892-2.542,8.322-.051,10.709C531.458,559.517,531.533,553.931,529.017,550.97Z" transform="translate(-86.388 -99.496)" fill="#fff"/>
      <path id="Path_18732" data-name="Path 18732" d="M472.721,555.978c.791-2.492,1.246-5.266,2.5-7.611,2.76-5.157,9.03-5.235,11.936-.181a15.8,15.8,0,0,1,.25,15.761,6.72,6.72,0,0,1-6.605,4.083c-3.156-.168-5.038-2.231-6.148-4.828A51.827,51.827,0,0,1,472.721,555.978Zm8.4,5.68c2.7-2.479,2.625-8.4-.026-10.707A8.967,8.967,0,0,0,481.119,561.658Z" transform="translate(-58.091 -99.383)" fill="#fff"/>
    </g>
  </g>
</svg>
