<svg xmlns="http://www.w3.org/2000/svg" width="290" height="290" viewBox="0 0 290 290">
  <g id="pop_up" data-name="pop up" transform="translate(18748 1172)">
    <g id="Whatsapp_Support" data-name="Whatsapp Support" transform="translate(32 892)">
      <rect id="Rectangle_1866" data-name="Rectangle 1866" width="290" height="290" transform="translate(-18780 -2064)" fill="#fff"/>
      <g id="Group_12431" data-name="Group 12431" transform="translate(-18859.359 -2098.359)">
        <g id="Group_12440" data-name="Group 12440" transform="translate(126.36 159.682)">
          <g id="Group_12431-2" data-name="Group 12431" transform="translate(24.198 0)">
            <path id="Path_21655" data-name="Path 21655" d="M316.38,255.4l-146.527-.484,7.978-64.382c.185-1.493,2.036-2.691,4.135-2.684l122.745.406c2.1.007,3.942,1.218,4.117,2.712Z" transform="translate(-169.853 -187.847)" fill="#3b424f"/>
          </g>
          <g id="Group_12432" data-name="Group 12432" transform="translate(28.339 2.701)">
            <path id="Path_21656" data-name="Path 21656" d="M315.541,257.538,177.3,257.082l7.424-63.4a1.416,1.416,0,0,1,1.5-.981l120.821.4c.765,0,1.434.446,1.494.99Z" transform="translate(-177.295 -192.702)" fill="#f9bf30"/>
          </g>
          <g id="Group_12433" data-name="Group 12433" transform="translate(28.339 2.701)">
            <path id="Path_21657" data-name="Path 21657" d="M315.541,257.538,177.3,257.082l7.424-63.4a1.416,1.416,0,0,1,1.5-.981l120.821.4c.765,0,1.434.446,1.494.99Z" transform="translate(-177.295 -192.702)" fill="#f9c795"/>
          </g>
          <g id="Group_12434" data-name="Group 12434" transform="translate(28.339 2.701)">
            <path id="Path_21658" data-name="Path 21658" d="M184.715,194.827a1.416,1.416,0,0,1,1.5-.98l120.821.4c.765,0,1.434.446,1.494.99l6.878,62.3h.13l-7-63.447c-.06-.545-.729-.988-1.494-.99l-120.821-.4a1.416,1.416,0,0,0-1.5.981l-7.424,63.4h.13Z" transform="translate(-177.295 -192.702)" fill="#dd821f"/>
          </g>
          <g id="Group_12435" data-name="Group 12435" transform="translate(0 66.987)">
            <path id="Path_21659" data-name="Path 21659" d="M316.448,315.936l-183.831-.607a6.278,6.278,0,0,1-6.257-6.3l0-.785,196.385.649,0,.784A6.277,6.277,0,0,1,316.448,315.936Z" transform="translate(-126.36 -308.246)" fill="#3b424f"/>
          </g>
          <g id="Group_12436" data-name="Group 12436" transform="translate(73.946 67.231)">
            <path id="Path_21660" data-name="Path 21660" d="M305.38,312.369l-43.748-.145a2.371,2.371,0,0,1-2.363-2.379l0-1.16,48.491.161,0,1.159A2.371,2.371,0,0,1,305.38,312.369Z" transform="translate(-259.268 -308.685)" fill="#2b323d"/>
          </g>
          <g id="Group_12437" data-name="Group 12437" transform="translate(74.854 68.132)">
            <path id="Path_21661" data-name="Path 21661" d="M307.566,311.333a.877.877,0,0,0-.874-.88l-22.455-.074-22.455-.075a.877.877,0,0,0-.88.874l0,1.245a2.348,2.348,0,0,0,1.456.519l21.874.072,21.874.072a2.349,2.349,0,0,0,1.459-.509Z" transform="translate(-260.899 -310.305)" fill="#b67f5f"/>
          </g>
          <g id="Group_12438" data-name="Group 12438" transform="translate(97.603 68.205)">
            <rect id="Rectangle_1980" data-name="Rectangle 1980" width="2.636" height="1.162" transform="translate(0 2.636) rotate(-89.811)" fill="#f9c795"/>
          </g>
          <g id="Group_12439" data-name="Group 12439" transform="translate(74.854 70.032)">
            <path id="Path_21662" data-name="Path 21662" d="M307.563,313.873l-46.663-.154v.22a2.349,2.349,0,0,0,1.456.518l21.874.072,21.874.072a2.349,2.349,0,0,0,1.459-.509Z" transform="translate(-260.899 -313.719)" fill="#f9c795"/>
          </g>
        </g>
        <g id="Group_12452" data-name="Group 12452" transform="translate(165.513 124.359)">
          <g id="Group_12448" data-name="Group 12448">
            <g id="Group_12441" data-name="Group 12441" transform="translate(4.178 19.282)">
              <path id="Path_21663" data-name="Path 21663" d="M306.477,159.327l-94.282-.312a2.714,2.714,0,0,0-2.666,2.474l-.59,7.487-4.687,59.5a2.807,2.807,0,0,0,2.585,3.257l104.516.345a2.807,2.807,0,0,0,2.606-3.24l-4.294-59.534-.54-7.49A2.713,2.713,0,0,0,306.477,159.327Z" transform="translate(-204.241 -159.015)" fill="#cd916e"/>
            </g>
            <g id="Group_12447" data-name="Group 12447">
              <g id="Group_12442" data-name="Group 12442" transform="translate(0 12.291)">
                <path id="Path_21664" data-name="Path 21664" d="M311.778,214.162l-111.947-.37a3.11,3.11,0,0,1-3.1-3.12l.212-64.221,118.167.391-.213,64.22A3.11,3.11,0,0,1,311.778,214.162Z" transform="translate(-196.732 -146.451)" fill="#ff605d"/>
              </g>
              <g id="Group_12443" data-name="Group 12443" transform="translate(0.212)">
                <path id="Path_21665" data-name="Path 21665" d="M315.28,137.041l-118.167-.391.031-9.192a3.11,3.11,0,0,1,3.12-3.1l111.947.37a3.11,3.11,0,0,1,3.1,3.12Z" transform="translate(-197.113 -124.359)" fill="#3b424f"/>
              </g>
              <g id="Group_12444" data-name="Group 12444" transform="translate(107.241 4.194)">
                <path id="Path_21666" data-name="Path 21666" d="M389.873,137.388h0a1.345,1.345,0,0,1,.007-1.9l3.219-3.2a1.345,1.345,0,0,1,1.9.006h0a1.345,1.345,0,0,1-.006,1.9l-3.22,3.2A1.344,1.344,0,0,1,389.873,137.388Z" transform="translate(-389.482 -131.897)" fill="#e85e56"/>
              </g>
              <g id="Group_12445" data-name="Group 12445" transform="translate(107.241 2.93)">
                <path id="Path_21667" data-name="Path 21667" d="M389.873,136.38h0a1.345,1.345,0,0,1,.007-1.9l4.492-4.462a1.344,1.344,0,0,1,1.9.006h0a1.345,1.345,0,0,1-.006,1.9l-4.492,4.462A1.345,1.345,0,0,1,389.873,136.38Z" transform="translate(-389.482 -129.625)" fill="#e85e56"/>
              </g>
              <g id="Group_12446" data-name="Group 12446" transform="translate(107.256 2.916)">
                <path id="Path_21668" data-name="Path 21668" d="M389.905,129.99h0a1.345,1.345,0,0,1,1.9.007l4.462,4.492a1.345,1.345,0,0,1-.007,1.9h0a1.344,1.344,0,0,1-1.9-.007l-4.462-4.492A1.345,1.345,0,0,1,389.905,129.99Z" transform="translate(-389.509 -129.599)" fill="#e85e56"/>
              </g>
            </g>
          </g>
          <g id="Group_12451" data-name="Group 12451" transform="translate(26.32 37.131)">
            <rect id="Rectangle_1981" data-name="Rectangle 1981" width="65.77" height="14.067" rx="1.814" transform="translate(0 11.65)" fill="#e04848"/>
            <g id="Group_12449" data-name="Group 12449" transform="translate(30.501 23.995)">
              <path id="Path_21669" data-name="Path 21669" d="M316.3,237.977l-13.684,13.684-3.752-17.436h0Z" transform="translate(-298.86 -234.225)" fill="#cc413e"/>
              <rect id="Rectangle_1982" data-name="Rectangle 1982" width="4.744" height="10.987" transform="matrix(0.707, -0.707, 0.707, 0.707, 7.063, 10.417)" fill="#cc413e"/>
            </g>
            <g id="Group_12450" data-name="Group 12450" transform="translate(31.723 13.688)">
              <path id="Path_21670" data-name="Path 21670" d="M323.041,220.43l-17.254,17.254L301.056,215.7h0Z" transform="translate(-301.056 -215.699)" fill="#fff"/>
              <rect id="Rectangle_1983" data-name="Rectangle 1983" width="5.982" height="13.854" transform="translate(8.906 13.136) rotate(-45)" fill="#fff"/>
            </g>
            <rect id="Rectangle_1984" data-name="Rectangle 1984" width="2.283" height="7.871" rx="1.141" transform="translate(30.582)" fill="#fff"/>
            <path id="Rectangle_1985" data-name="Rectangle 1985" d="M1.141,0h0A1.141,1.141,0,0,1,2.283,1.141V6.73A1.141,1.141,0,0,1,1.141,7.871h0A1.141,1.141,0,0,1,0,6.73V1.141A1.141,1.141,0,0,1,1.141,0Z" transform="translate(21.237 4.816) rotate(-45)" fill="#fff"/>
            <rect id="Rectangle_1986" data-name="Rectangle 1986" width="2.283" height="7.871" rx="1.141" transform="translate(18.035 14.829) rotate(-90)" fill="#fff"/>
            <rect id="Rectangle_1987" data-name="Rectangle 1987" width="2.283" height="7.871" rx="1.141" transform="translate(22.851 24.174) rotate(-135)" fill="#fff"/>
            <rect id="Rectangle_1988" data-name="Rectangle 1988" width="2.283" height="7.871" rx="1.141" transform="translate(40.595 3.202) rotate(45)" fill="#fff"/>
          </g>
        </g>
        <g id="Group_12455" data-name="Group 12455" transform="translate(182.894 147.429)">
          <rect id="Rectangle_1989" data-name="Rectangle 1989" width="18.514" height="2.278" rx="1.139" transform="translate(0 0)" fill="#cc413e"/>
          <g id="Group_12453" data-name="Group 12453" transform="translate(0 4.482)">
            <rect id="Rectangle_1990" data-name="Rectangle 1990" width="10.396" height="2.278" rx="1.139" fill="#cc413e"/>
            <rect id="Rectangle_1991" data-name="Rectangle 1991" width="15.355" height="2.278" rx="1.139" transform="translate(12.71)" fill="#cc413e"/>
            <rect id="Rectangle_1992" data-name="Rectangle 1992" width="10.396" height="2.278" rx="1.139" transform="translate(30.38)" fill="#cc413e"/>
            <rect id="Rectangle_1993" data-name="Rectangle 1993" width="15.557" height="2.278" rx="1.139" transform="translate(0 4.098)" fill="#cc413e"/>
            <rect id="Rectangle_1994" data-name="Rectangle 1994" width="4.555" height="2.278" rx="1.139" transform="translate(17.872 4.098)" fill="#cc413e"/>
            <rect id="Rectangle_1995" data-name="Rectangle 1995" width="10.396" height="2.278" rx="1.139" transform="translate(24.741 4.098)" fill="#cc413e"/>
          </g>
          <rect id="Rectangle_1996" data-name="Rectangle 1996" width="18.514" height="2.278" rx="1.139" transform="translate(43.082 0.192)" fill="#cc413e"/>
          <g id="Group_12454" data-name="Group 12454" transform="translate(43.082 4.673)">
            <rect id="Rectangle_1997" data-name="Rectangle 1997" width="10.396" height="2.278" rx="1.139" fill="#cc413e"/>
            <rect id="Rectangle_1998" data-name="Rectangle 1998" width="15.355" height="2.278" rx="1.139" transform="translate(12.71)" fill="#cc413e"/>
            <rect id="Rectangle_1999" data-name="Rectangle 1999" width="10.396" height="2.278" rx="1.139" transform="translate(30.38)" fill="#cc413e"/>
            <rect id="Rectangle_2000" data-name="Rectangle 2000" width="15.557" height="2.278" rx="1.139" transform="translate(0 4.098)" fill="#cc413e"/>
            <rect id="Rectangle_2001" data-name="Rectangle 2001" width="4.555" height="2.278" rx="1.139" transform="translate(17.872 4.098)" fill="#cc413e"/>
            <rect id="Rectangle_2002" data-name="Rectangle 2002" width="10.396" height="2.278" rx="1.139" transform="translate(24.741 4.098)" fill="#cc413e"/>
          </g>
        </g>
      </g>
    </g>
  </g>
</svg>
