<svg xmlns="http://www.w3.org/2000/svg" width="290" height="290" viewBox="0 0 290 290">
  <g id="svg_support" data-name="svg support" transform="translate(60 17)">
    <rect id="Rectangle_1969" data-name="Rectangle 1969" width="290" height="290" transform="translate(-60 -17)" fill="#fff"/>
    <g id="files-and-folders" transform="translate(-47 27)">
      <path id="Path_21481" data-name="Path 21481" d="M185.333,188.333H89a17,17,0,0,1-17-17V41A17,17,0,0,1,89,24h79.333l34,34V171.333A17,17,0,0,1,185.333,188.333Z" transform="translate(-5.167 -5.167)" fill="#8690fa"/>
      <path id="Path_21482" data-name="Path 21482" d="M192,152h45.333v45.333H192Z" transform="translate(-82.667 -87.833)" fill="#5153ff"/>
      <path id="Path_21483" data-name="Path 21483" d="M72,360H202.333v28.333a17,17,0,0,1-17,17H89a17,17,0,0,1-17-17Z" transform="translate(-5.167 -222.167)" fill="#cfd2fc"/>
      <path id="Path_21484" data-name="Path 21484" d="M378,58H361a17,17,0,0,1-17-17V24Z" transform="translate(-180.833 -5.167)" fill="#cfd2fc"/>
      <g id="Group_12389" data-name="Group 12389" transform="translate(103.667 58.5)">
        <path id="Path_21485" data-name="Path 21485" d="M176,136h11.333v11.333H176Z" transform="translate(-176 -136)" fill="#fff"/>
        <path id="Path_21486" data-name="Path 21486" d="M304,136h11.333v11.333H304Z" transform="translate(-258.667 -136)" fill="#fff"/>
        <path id="Path_21487" data-name="Path 21487" d="M304,264h11.333v11.333H304Z" transform="translate(-258.667 -218.667)" fill="#fff"/>
        <path id="Path_21488" data-name="Path 21488" d="M176,264h11.333v11.333H176Z" transform="translate(-176 -218.667)" fill="#fff"/>
      </g>
      <path id="Path_21489" data-name="Path 21489" d="M165.17,16.83a2.833,2.833,0,0,0-2-.83H83.833A19.856,19.856,0,0,0,64,35.833V166.167A19.856,19.856,0,0,0,83.833,186h96.333A19.856,19.856,0,0,0,200,166.167V52.833a2.833,2.833,0,0,0-.83-2Zm.83,8.844L190.327,50h-10.16A14.183,14.183,0,0,1,166,35.833ZM83.833,21.667h76.5V35.833a19.856,19.856,0,0,0,19.833,19.833h14.167V135H69.667V35.833A14.183,14.183,0,0,1,83.833,21.667Zm96.333,158.667H83.833a14.183,14.183,0,0,1-14.167-14.167v-25.5H194.333v25.5A14.183,14.183,0,0,1,180.167,180.333Z"/>
      <path id="Path_21490" data-name="Path 21490" d="M168.5,389.667h5.667a2.833,2.833,0,1,0,0-5.667H168.5a8.5,8.5,0,0,0,0,17,2.833,2.833,0,1,1,0,5.667h-5.667a2.833,2.833,0,1,0,0,5.667H168.5a8.5,8.5,0,0,0,0-17,2.833,2.833,0,1,1,0-5.667Z" transform="translate(-62 -237.667)"/>
      <path id="Path_21491" data-name="Path 21491" d="M238.853,384.083a2.833,2.833,0,0,0-3.435,2.062L232.5,397.817l-2.918-11.672a2.833,2.833,0,1,0-5.5,1.374l5.667,22.667a2.833,2.833,0,0,0,5.5,0l5.667-22.667A2.833,2.833,0,0,0,238.853,384.083Z" transform="translate(-103.332 -237.665)"/>
      <path id="Path_21492" data-name="Path 21492" d="M307.833,395.333h-5.667a2.833,2.833,0,1,0,0,5.667h2.5c-.8,3.264-2.917,5.667-5.33,5.667-3.072,0-5.667-3.893-5.667-8.5s2.595-8.5,5.667-8.5a3.793,3.793,0,0,1,1.625.374,2.833,2.833,0,1,0,2.416-5.126,9.421,9.421,0,0,0-4.041-.915C293.084,384,288,390.355,288,398.167s5.084,14.167,11.333,14.167,11.333-6.355,11.333-14.167A2.833,2.833,0,0,0,307.833,395.333Z" transform="translate(-144.667 -237.667)"/>
      <path id="Path_21493" data-name="Path 21493" d="M170.833,190.333h11.333A2.833,2.833,0,0,0,185,187.5v-2.833h28.333V187.5a2.833,2.833,0,0,0,2.833,2.833H227.5a2.833,2.833,0,0,0,2.833-2.833V176.167a2.833,2.833,0,0,0-2.833-2.833h-2.833V145H227.5a2.833,2.833,0,0,0,2.833-2.833V130.833A2.833,2.833,0,0,0,227.5,128H216.167a2.833,2.833,0,0,0-2.833,2.833v2.833H185v-2.833A2.833,2.833,0,0,0,182.167,128H170.833A2.833,2.833,0,0,0,168,130.833v11.333A2.833,2.833,0,0,0,170.833,145h2.833v28.333h-2.833A2.833,2.833,0,0,0,168,176.167V187.5A2.833,2.833,0,0,0,170.833,190.333Zm53.833-5.667H219V179h5.667Zm-5.667-51h5.667v5.667H219Zm-45.333,0h5.667v5.667h-5.667ZM179.333,145h2.833A2.833,2.833,0,0,0,185,142.167v-2.833h28.333v2.833A2.833,2.833,0,0,0,216.167,145H219v28.333h-2.833a2.833,2.833,0,0,0-2.833,2.833V179H185v-2.833a2.833,2.833,0,0,0-2.833-2.833h-2.833Zm-5.667,34h5.667v5.667h-5.667Z" transform="translate(-67.167 -72.333)"/>
    </g>
  </g>
</svg>
