<svg xmlns="http://www.w3.org/2000/svg" width="290" height="290" viewBox="0 0 290 290">
  <g id="woocommerce" transform="translate(17742 2533)">
    <rect id="Rectangle_1864" data-name="Rectangle 1864" width="290" height="290" transform="translate(-17742 -2533)" fill="#fff"/>
    <g id="woocommerce-2" data-name="woocommerce" transform="translate(-17682 -2439)">
      <path id="Path_18733" data-name="Path 18733" d="M15.777,0H154.153A15.839,15.839,0,0,1,170,15.846v52.82a15.839,15.839,0,0,1-15.847,15.847H104.53l6.811,16.68L81.386,84.513H15.847A15.839,15.839,0,0,1,0,68.667V15.846A15.78,15.78,0,0,1,15.777,0Z" transform="translate(0)" fill="#9b5c8f"/>
      <path id="Path_18734" data-name="Path 18734" d="M13.976,19.186a5.562,5.562,0,0,1,4.354-2.142q5.287-.415,6.012,4.976,3.213,21.665,6.98,36.7L46.456,29.9q2.073-3.939,5.183-4.146c3.041-.207,4.907,1.728,5.667,5.8A129.089,129.089,0,0,0,63.871,55.19q2.7-26.329,9.122-38.008a5.308,5.308,0,0,1,4.561-3.041,6,6,0,0,1,4.354,1.382,5.413,5.413,0,0,1,2.142,3.939,6,6,0,0,1-.691,3.317c-2.7,4.976-4.907,13.337-6.7,24.947-1.727,11.264-2.349,20.041-1.935,26.329a8.208,8.208,0,0,1-.829,4.561A4.454,4.454,0,0,1,70.228,81.1c-1.8.138-3.663-.691-5.459-2.557Q55.129,68.7,49.5,49.109q-6.738,13.268-9.951,19.9C35.468,76.82,32.013,80.828,29.11,81.036c-1.866.138-3.455-1.452-4.837-4.769q-5.287-13.579-11.4-52.451A5.887,5.887,0,0,1,13.976,19.186Zm148.508,10.85a15.914,15.914,0,0,0-11.057-8.016A18.145,18.145,0,0,0,147.7,21.6c-6.634,0-12.024,3.455-16.24,10.366a36.614,36.614,0,0,0-5.39,19.488,26.757,26.757,0,0,0,3.317,13.683,15.914,15.914,0,0,0,11.057,8.016,18.109,18.109,0,0,0,3.732.415c6.7,0,12.093-3.455,16.24-10.366a37.033,37.033,0,0,0,5.39-19.557A25.5,25.5,0,0,0,162.484,30.035Zm-8.707,19.142c-.968,4.561-2.7,7.947-5.252,10.228-2,1.8-3.87,2.557-5.6,2.211-1.659-.346-3.041-1.8-4.077-4.492a17.536,17.536,0,0,1-1.244-6.289,24.048,24.048,0,0,1,.483-5.045,22.357,22.357,0,0,1,3.662-8.224c2.281-3.386,4.7-4.768,7.187-4.285,1.659.346,3.041,1.8,4.077,4.492a17.536,17.536,0,0,1,1.244,6.289A24.262,24.262,0,0,1,153.777,49.178ZM119.224,30.035a16.057,16.057,0,0,0-11.057-8.016,18.14,18.14,0,0,0-3.732-.415C97.8,21.6,92.411,25.06,88.2,31.97a36.62,36.62,0,0,0-5.39,19.488,26.757,26.757,0,0,0,3.317,13.683A15.914,15.914,0,0,0,97.18,73.157a18.1,18.1,0,0,0,3.731.415c6.7,0,12.093-3.455,16.24-10.366a37.027,37.027,0,0,0,5.39-19.557A26.147,26.147,0,0,0,119.224,30.035Zm-8.776,19.142c-.968,4.561-2.7,7.947-5.252,10.228-2,1.8-3.87,2.557-5.6,2.211-1.659-.346-3.041-1.8-4.077-4.492a17.536,17.536,0,0,1-1.244-6.289,24.048,24.048,0,0,1,.483-5.045,22.348,22.348,0,0,1,3.663-8.224c2.28-3.386,4.7-4.768,7.186-4.285,1.659.346,3.041,1.8,4.077,4.492a17.536,17.536,0,0,1,1.244,6.289,20.394,20.394,0,0,1-.483,5.114Z" transform="translate(-4.295 -4.743)" fill="#fff"/>
    </g>
  </g>
</svg>
