<svg id="add-circular-outlined-button" xmlns="http://www.w3.org/2000/svg" width="15" height="15" viewBox="0 0 15 15">
  <g id="_x38__3_">
    <g id="Group_3512" data-name="Group 3512">
      <path id="Path_12311" data-name="Path 12311" d="M7.5,0A7.5,7.5,0,1,0,15,7.5,7.5,7.5,0,0,0,7.5,0Zm0,14.062A6.562,6.562,0,1,1,14.062,7.5,6.562,6.562,0,0,1,7.5,14.062Zm2.813-7.031H7.969V4.688a.469.469,0,0,0-.938,0V7.031H4.688a.469.469,0,0,0,0,.938H7.031v2.344a.469.469,0,0,0,.938,0V7.969h2.344a.469.469,0,0,0,0-.938Z" fill="#212121"/>
    </g>
  </g>
</svg>
