<svg xmlns="http://www.w3.org/2000/svg" width="121.861" height="120" viewBox="0 0 121.861 120">
  <g id="document" transform="translate(0 -0.055)">
    <path id="Path_13312" data-name="Path 13312" d="M333.73,13.271a8.212,8.212,0,0,0-11.34,7.6V42.263h6.246V20.869a8.229,8.229,0,0,1,5.094-7.6Zm0,0" transform="translate(-221.715 -8.664)" fill="#c2d8cc" opacity="0.5"/>
    <path id="Path_13313" data-name="Path 13313" d="M18.3,303.889v-9.467H12.059v9.467a14.517,14.517,0,0,0,14.317,14.677h6.246A14.518,14.518,0,0,1,18.3,303.889Zm0,0" transform="translate(-8.293 -202.443)" fill="#c2d8cc" opacity="0.5"/>
    <path id="Path_13314" data-name="Path 13314" d="M81.6,12.652H75.359A9.69,9.69,0,0,0,65.7,22.213l-.584,74.994h6.246l.584-74.994A9.69,9.69,0,0,1,81.6,12.652Zm0,0" transform="translate(-44.783 -8.664)" fill="#c2d8cc" opacity="0.5"/>
    <g id="Group_2068" data-name="Group 2068" transform="translate(0 0.055)">
      <path id="Path_13315" data-name="Path 13315" d="M109.513.055c-.135,0-.27.006-.4.011a1.745,1.745,0,0,0-.2-.011H31.33a13.891,13.891,0,0,0-13.845,13.71L16.878,88h-15A1.873,1.873,0,0,0,0,89.875V101a18.922,18.922,0,0,0,17.5,19.014,1.852,1.852,0,0,0,.393.041H81.185a1.849,1.849,0,0,0,.26-.02c.26.011.521.02.783.02a18.907,18.907,0,0,0,18.629-17.607c0-.044,0-.088,0-.131l.032-8.347.016-41.807V36.488h19.078a1.873,1.873,0,0,0,1.874-1.874V12.4A12.364,12.364,0,0,0,109.513.055ZM18.683,116.307A15.141,15.141,0,0,1,3.747,101V91.748H63.536V101a19.155,19.155,0,0,0,7.573,15.308Zm78.48-64.145-.016,41.8-.032,8.275A14.931,14.931,0,0,1,67.282,101V89.875A1.873,1.873,0,0,0,65.408,88H20.625l.607-74.2a10.131,10.131,0,0,1,10.1-10h69.335a12.308,12.308,0,0,0-3.5,8.6ZM118.114,32.74h-17.2V12.4a8.6,8.6,0,1,1,17.2,0Zm0,0" transform="translate(0 -0.055)" fill="#008d71"/>
      <path id="Path_13316" data-name="Path 13316" d="M252.521,80.488H250.87a1.874,1.874,0,0,0,0,3.747h1.652a1.874,1.874,0,0,0,0-3.747Zm0,0" transform="translate(-171.24 -55.371)" fill="#008d71"/>
      <path id="Path_13317" data-name="Path 13317" d="M205.531,82.362a1.874,1.874,0,0,0,1.874,1.874H214a1.874,1.874,0,0,0,0-3.747H207.4A1.873,1.873,0,0,0,205.531,82.362Zm0,0" transform="translate(-141.348 -55.371)" fill="#008d71"/>
      <path id="Path_13318" data-name="Path 13318" d="M114.534,84.236h22.594a1.874,1.874,0,0,0,0-3.747H114.534a1.874,1.874,0,0,0,0,3.747Zm0,0" transform="translate(-77.479 -55.371)" fill="#008d71"/>
      <path id="Path_13319" data-name="Path 13319" d="M238.767,40.488h-7.9a1.874,1.874,0,0,0,0,3.747h7.9a1.874,1.874,0,0,0,0-3.747Zm0,0" transform="translate(-157.486 -27.862)" fill="#008d71"/>
      <path id="Path_13320" data-name="Path 13320" d="M147.4,44.236h19.083a1.874,1.874,0,0,0,0-3.747H147.4a1.874,1.874,0,0,0,0,3.747Zm0,0" transform="translate(-100.085 -27.862)" fill="#008d71"/>
      <path id="Path_13321" data-name="Path 13321" d="M114.534,44.236h3.857a1.874,1.874,0,0,0,0-3.747h-3.857a1.874,1.874,0,0,0,0,3.747Zm0,0" transform="translate(-77.479 -27.862)" fill="#008d71"/>
      <path id="Path_13322" data-name="Path 13322" d="M174.489,120.488H137.4a1.874,1.874,0,0,0,0,3.747h37.084a1.874,1.874,0,0,0,0-3.747Zm0,0" transform="translate(-93.208 -82.879)" fill="#008d71"/>
      <path id="Path_13323" data-name="Path 13323" d="M114.534,124.235h.734a1.874,1.874,0,0,0,0-3.747h-.734a1.874,1.874,0,0,0,0,3.747Zm0,0" transform="translate(-77.479 -82.879)" fill="#008d71"/>
      <path id="Path_13324" data-name="Path 13324" d="M252.521,200.488H250.87a1.874,1.874,0,0,0,0,3.747h1.652a1.874,1.874,0,0,0,0-3.747Zm0,0" transform="translate(-171.24 -137.897)" fill="#008d71"/>
      <path id="Path_13325" data-name="Path 13325" d="M215.871,202.362A1.873,1.873,0,0,0,214,200.488h-6.592a1.874,1.874,0,0,0,0,3.747H214A1.874,1.874,0,0,0,215.871,202.362Zm0,0" transform="translate(-141.349 -137.897)" fill="#008d71"/>
      <path id="Path_13326" data-name="Path 13326" d="M114.534,204.235h22.594a1.874,1.874,0,0,0,0-3.747H114.534a1.874,1.874,0,0,0,0,3.747Zm0,0" transform="translate(-77.479 -137.897)" fill="#008d71"/>
      <path id="Path_13327" data-name="Path 13327" d="M238.767,160.488h-7.9a1.874,1.874,0,0,0,0,3.747h7.9a1.874,1.874,0,0,0,0-3.747Zm0,0" transform="translate(-157.486 -110.388)" fill="#008d71"/>
      <path id="Path_13328" data-name="Path 13328" d="M166.488,164.235a1.874,1.874,0,0,0,0-3.747H147.405a1.874,1.874,0,1,0,0,3.747Zm0,0" transform="translate(-100.085 -110.388)" fill="#008d71"/>
      <path id="Path_13329" data-name="Path 13329" d="M114.534,164.235h3.857a1.874,1.874,0,1,0,0-3.747h-3.857a1.874,1.874,0,0,0,0,3.747Zm0,0" transform="translate(-77.479 -110.388)" fill="#008d71"/>
      <path id="Path_13330" data-name="Path 13330" d="M243.261,240.488H237.4a1.874,1.874,0,1,0,0,3.747h5.856a1.874,1.874,0,0,0,0-3.747Zm0,0" transform="translate(-161.98 -165.406)" fill="#008d71"/>
      <path id="Path_13331" data-name="Path 13331" d="M146.495,240.488H114.534a1.874,1.874,0,1,0,0,3.747h31.961a1.874,1.874,0,0,0,0-3.747Zm0,0" transform="translate(-77.479 -165.406)" fill="#008d71"/>
    </g>
  </g>
</svg>
