<svg id="film" xmlns="http://www.w3.org/2000/svg" width="120" height="120" viewBox="0 0 120 120">
  <path id="Path_13359" data-name="Path 13359" d="M88,12h5.556V125.333H88Zm0,0" transform="translate(-63.556 -8.667)" fill="#c2d8cc" opacity="0.5"/>
  <path id="Path_13360" data-name="Path 13360" d="M1.667,120H118.333A1.667,1.667,0,0,0,120,118.333V1.667A1.667,1.667,0,0,0,118.333,0H1.667A1.667,1.667,0,0,0,0,1.667V118.333A1.667,1.667,0,0,0,1.667,120ZM3.333,96.667H21.111v20H3.333ZM98.889,73.333h17.778v20H98.889Zm0-3.333V50h17.778V70Zm0-23.333v-20h17.778v20Zm-3.333,70H24.444V3.333H95.556Zm-74.444-70H3.333v-20H21.111Zm0,3.333V70H3.333V50Zm0,23.333v20H3.333v-20Zm77.778,43.333v-20h17.778v20Zm17.778-93.333H98.889v-20h17.778Zm-95.556-20v20H3.333v-20Zm0,0" fill="#008d71"/>
  <g id="Group_2074" data-name="Group 2074" transform="translate(34.469 34.469)">
    <path id="Path_13361" data-name="Path 13361" d="M149.62,175.151A25.531,25.531,0,1,0,124.09,149.62a25.53,25.53,0,0,0,25.531,25.531Zm0-47.728a22.2,22.2,0,1,1-22.2,22.2,22.2,22.2,0,0,1,22.2-22.2Zm0,0" transform="translate(-124.09 -124.09)" fill="#008d71"/>
    <path id="Path_13362" data-name="Path 13362" d="M193.878,198.015a1.667,1.667,0,0,0,1.709-.08l14.222-9.449a1.667,1.667,0,0,0,0-2.778l-14.222-9.45A1.665,1.665,0,0,0,193,177.647v18.9A1.661,1.661,0,0,0,193.878,198.015Zm2.456-17.259,9.544,6.341-9.544,6.341Zm0,0" transform="translate(-173.858 -161.566)" fill="#008d71"/>
  </g>
</svg>
