<svg id="headphone" xmlns="http://www.w3.org/2000/svg" width="123.168" height="120" viewBox="0 0 123.168 120">
  <path id="Path_13353" data-name="Path 13353" d="M17.45,231.226V217.121a8.955,8.955,0,0,1,8.944-8.944h-5.45A8.955,8.955,0,0,0,12,217.121v14.106a8.956,8.956,0,0,0,8.944,8.943h5.45a8.956,8.956,0,0,1-8.944-8.943Zm0,0" transform="translate(-8.73 -151.449)" fill="#c2d8cc" opacity="0.5"/>
  <path id="Path_13354" data-name="Path 13354" d="M392.626,208.176h-5.45a8.955,8.955,0,0,1,8.944,8.944v14.106a8.956,8.956,0,0,1-8.944,8.943h5.45a8.956,8.956,0,0,0,8.944-8.943V217.12A8.955,8.955,0,0,0,392.626,208.176Zm0,0" transform="translate(-281.672 -151.449)" fill="#c2d8cc" opacity="0.5"/>
  <path id="Path_13355" data-name="Path 13355" d="M149.665,45.715a45.715,45.715,0,1,0-91.431,0v9.377a1.635,1.635,0,1,0,3.27,0V45.715a42.445,42.445,0,1,1,84.891,0v9.377a1.635,1.635,0,1,0,3.27,0Zm0,0" transform="translate(-42.366)" fill="#008d71"/>
  <path id="Path_13356" data-name="Path 13356" d="M239.517,327.633a1.635,1.635,0,0,0-1.635,1.635v6.8A11.135,11.135,0,0,1,226.76,347.2h-8.222a8.458,8.458,0,0,0-8.427-7.888H192.436a8.457,8.457,0,0,0-8.447,8.447v2.153a8.457,8.457,0,0,0,8.447,8.447h17.675a8.458,8.458,0,0,0,8.427-7.889h8.222a14.408,14.408,0,0,0,14.392-14.392v-6.806A1.635,1.635,0,0,0,239.517,327.633Zm-24.229,22.273a5.183,5.183,0,0,1-5.177,5.177H192.436a5.183,5.183,0,0,1-5.177-5.177v-2.153a5.183,5.183,0,0,1,5.177-5.177h17.675a5.183,5.183,0,0,1,5.177,5.177Zm0,0" transform="translate(-133.853 -238.355)" fill="#008d71"/>
  <g id="Group_2073" data-name="Group 2073" transform="translate(0 53.457)">
    <path id="Path_13357" data-name="Path 13357" d="M24.556,196.176H12.214A12.229,12.229,0,0,0,0,208.39V222.5A12.228,12.228,0,0,0,12.214,234.71H24.556a1.635,1.635,0,0,0,1.635-1.635V197.811a1.635,1.635,0,0,0-1.635-1.635Zm-1.635,35.265H12.214A8.955,8.955,0,0,1,3.27,222.5V208.39a8.955,8.955,0,0,1,8.944-8.944H22.922Zm0,0" transform="translate(0 -196.176)" fill="#008d71"/>
    <path id="Path_13358" data-name="Path 13358" d="M369.86,196.176H357.518a1.635,1.635,0,0,0-1.635,1.635v35.264a1.635,1.635,0,0,0,1.635,1.635H369.86A12.228,12.228,0,0,0,382.074,222.5V208.39A12.229,12.229,0,0,0,369.86,196.176ZM378.8,222.5a8.956,8.956,0,0,1-8.944,8.943H359.153V199.446H369.86a8.955,8.955,0,0,1,8.944,8.944Zm0,0" transform="translate(-258.907 -196.176)" fill="#008d71"/>
  </g>
</svg>
