<svg id="_002-remove" data-name="002-remove" xmlns="http://www.w3.org/2000/svg" width="16" height="16" viewBox="0 0 16 16">
  <path id="Path_12317" data-name="Path 12317" d="M8,0a8,8,0,1,0,8,8A8.009,8.009,0,0,0,8,0ZM8,0" fill="#f55f50"/>
  <path id="Path_12318" data-name="Path 12318" d="M161.559,160.616a.667.667,0,1,1-.943.943l-2-2-2,2a.667.667,0,0,1-.943-.943l2-2-2-2a.667.667,0,0,1,.943-.943l2,2,2-2a.667.667,0,0,1,.943.943l-2,2Zm0,0" transform="translate(-150.613 -150.613)" fill="#fafafa"/>
</svg>
