<svg xmlns="http://www.w3.org/2000/svg" width="706" height="621" viewBox="0 0 706 621">
  <g id="Group_1" data-name="Group 1" transform="translate(-503 -222)">
    <rect id="Rectangle_1" data-name="Rectangle 1" width="706" height="621" transform="translate(503 222)" fill="#edeff0"/>
    <g id="image" transform="translate(820 624)" opacity="0.856">
      <path id="Path_1" data-name="Path 1" d="M3.509-116.964C-.056-115.122,0-115.316,0-91.892c0,23.811,0,23.811,3.9,25.46,1.782.776,4.511.873,32.026.873,28.851,0,30.132-.049,31.859-.97,3.565-1.843,3.509-1.6,3.509-25.315,0-20.465-.056-21.58-1.114-23.035-1.838-2.667-3.565-3.1-11.307-2.958-6.349.146-6.8.194-6.8,1.115s.446.97,7.129,1.212,7.241.339,8.243,1.406,1.058,2.134,1.058,18.671v17.507L56.923-88.013c-6.349-5.528-11.808-10.039-12.086-10.039A84.06,84.06,0,0,0,36.76-91.5l-7.575,6.547-1.894-1.7a7.981,7.981,0,0,0-2.506-1.7c-.278,0-5.18,4.025-10.861,8.972S3.453-70.409,3.23-70.409c-.278,0-.446-9.6-.446-21.29,0-20.223.056-21.338,1.058-22.4L4.9-115.267l19.16-.242c18.659-.242,19.1-.242,19.1-1.212s-.446-.97-18.937-1.115C6.238-117.934,5.18-117.886,3.509-116.964Zm65,44.519A3.586,3.586,0,0,1,67.115-69.2l-1.337,1.212H35.646c-16.542,0-30.076-.145-30.076-.339s4.344-4.122,9.58-8.729l9.636-8.39L31.3-79.768c6.127,5.335,6.628,5.625,7.519,4.9.835-.776.613-1.067-3.342-4.607L31.246-83.26l6.8-5.965,6.8-5.916L56.644-84.86C68.4-74.628,68.508-74.531,68.508-72.446Z" transform="translate(0 0)"/>
      <path id="Path_3" data-name="Path 3" d="M84.3-116.4c-.8,2.1,1.3,4.2,2.8,2.7,1.3-1.3.5-4.3-1.1-4.3C85.4-118,84.7-117.3,84.3-116.4Z" transform="translate(-38.356)"/>
      <path id="Path_4" data-name="Path 4" d="M34.257-94.748A4.593,4.593,0,0,0,32.671-89.3a4.884,4.884,0,0,0,4.707,3.321A4.924,4.924,0,0,0,40.5-94.748,4.584,4.584,0,0,0,34.257-94.748Zm5.152,2.478c1.486,2.33-.5,4.659-3.171,3.668a2.506,2.506,0,0,1-.842-3.916A2.409,2.409,0,0,1,39.409-92.27Z" transform="translate(-16.528 -13.461)"/>
    </g>
  </g>
</svg>
