<svg xmlns="http://www.w3.org/2000/svg" width="80.4" height="50.84" viewBox="0 0 90.46 57.159">
  <g id="landscapes" transform="translate(1.253 -139.886)">
    <path id="Path_17432" data-name="Path 17432" d="M88.978,191.33H-1.048s-.315.3,0,0h0a5.716,5.716,0,0,0,5.716,5.716H83.262a5.716,5.716,0,0,0,5.716-5.716h0c0-.574-.008.18,0,.014-.009-.048-.184-.071,0-.014.119.034-.339-.171,0,0-.009.294,0-.181,0,0,0,.094-.156.074,0,.014C89.045,191.354,89.459,191.33,88.978,191.33Zm0,0-8.371-14.536L72,164.07a4.286,4.286,0,0,0-5.914.142l-11.4,11.4L32.2,148.76a4.287,4.287,0,0,0-6.536-.044L9.01,175.61-1.048,191.329ZM58.969,147.745a7.859,7.859,0,1,1,7.859,7.859A7.858,7.858,0,0,1,58.969,147.745Z" fill="#dedede"/>
  </g>
</svg>
