<svg width="21" height="25" viewBox="0 0 21 25" fill="none" xmlns="http://www.w3.org/2000/svg">
<path d="M20.5 21.6104L19.0685 5.4908C19.0378 5.13292 18.7362 4.86196 18.3834 4.86196H15.4386C15.3977 2.1728 13.1994 0 10.5 0C7.8006 0 5.60223 2.1728 5.56133 4.86196H2.61655C2.25868 4.86196 1.96215 5.13292 1.93148 5.4908L0.499986 21.6104C0.499986 21.6309 0.494873 21.6513 0.494873 21.6718C0.494873 23.5072 2.17688 25 4.24743 25H16.7525C18.8231 25 20.5051 23.5072 20.5051 21.6718C20.5051 21.6513 20.5051 21.6309 20.5 21.6104ZM10.5 1.38037C12.4376 1.38037 14.0174 2.93456 14.0583 4.86196H6.9417C6.9826 2.93456 8.56236 1.38037 10.5 1.38037ZM16.7525 23.6196H4.24743C2.94886 23.6196 1.89569 22.7607 1.87524 21.7025L3.24538 6.24744H5.55622V8.34356C5.55622 8.72699 5.86297 9.03374 6.24641 9.03374C6.62984 9.03374 6.93659 8.72699 6.93659 8.34356V6.24744H14.0583V8.34356C14.0583 8.72699 14.365 9.03374 14.7485 9.03374C15.1319 9.03374 15.4386 8.72699 15.4386 8.34356V6.24744H17.7495L19.1247 21.7025C19.1043 22.7607 18.046 23.6196 16.7525 23.6196Z" fill="white"/>
</svg>
